<mxfile host="Electron" modified="2023-12-05T17:12:46.558Z" agent="Mozilla/5.0 (Windows NT 10.0; Win64; x64) AppleWebKit/537.36 (KHTML, like Gecko) draw.io/22.0.3 Chrome/114.0.5735.289 Electron/25.8.4 Safari/537.36" etag="GHXzu2ajYxrC-x6PyzHi" version="22.0.3" type="device" pages="2">
  <diagram name="Page-1" id="wR9lI6gn29x06geGBHkm">
    <mxGraphModel dx="989" dy="577" grid="1" gridSize="10" guides="1" tooltips="1" connect="1" arrows="1" fold="1" page="1" pageScale="1" pageWidth="827" pageHeight="1169" math="0" shadow="0">
      <root>
        <mxCell id="0" />
        <mxCell id="1" parent="0" />
        <mxCell id="zG7GpUUIhApCFcoai5n3-43" value="" style="whiteSpace=wrap;html=1;aspect=fixed;" vertex="1" parent="1">
          <mxGeometry x="160" y="246.25" width="413.75" height="413.75" as="geometry" />
        </mxCell>
        <mxCell id="qgr2JBzwgw_MhLTYwdBK-132" value="" style="rounded=0;whiteSpace=wrap;html=1;fillColor=none;" parent="1" vertex="1">
          <mxGeometry x="612.35" y="230" width="100" height="420" as="geometry" />
        </mxCell>
        <mxCell id="JFCXjYUeIQA5T5QnIjq4-16" style="edgeStyle=orthogonalEdgeStyle;rounded=0;orthogonalLoop=1;jettySize=auto;html=1;exitX=1;exitY=0.5;exitDx=0;exitDy=0;entryX=0.5;entryY=0;entryDx=0;entryDy=0;" parent="1" source="qgr2JBzwgw_MhLTYwdBK-1" target="qgr2JBzwgw_MhLTYwdBK-132" edge="1">
          <mxGeometry relative="1" as="geometry" />
        </mxCell>
        <mxCell id="zG7GpUUIhApCFcoai5n3-7" style="edgeStyle=orthogonalEdgeStyle;rounded=0;orthogonalLoop=1;jettySize=auto;html=1;exitX=1;exitY=0.5;exitDx=0;exitDy=0;entryX=0.5;entryY=0;entryDx=0;entryDy=0;" edge="1" parent="1" source="qgr2JBzwgw_MhLTYwdBK-1" target="qgr2JBzwgw_MhLTYwdBK-7">
          <mxGeometry relative="1" as="geometry">
            <Array as="points">
              <mxPoint x="770" y="200" />
              <mxPoint x="770" y="670" />
              <mxPoint x="662" y="670" />
            </Array>
          </mxGeometry>
        </mxCell>
        <mxCell id="qgr2JBzwgw_MhLTYwdBK-1" value="&lt;b&gt;1&lt;br&gt;&lt;/b&gt;Alimentation externe 5V" style="whiteSpace=wrap;html=1;aspect=fixed;" parent="1" vertex="1">
          <mxGeometry x="180" y="160" width="80" height="80" as="geometry" />
        </mxCell>
        <mxCell id="zG7GpUUIhApCFcoai5n3-35" style="edgeStyle=orthogonalEdgeStyle;rounded=0;orthogonalLoop=1;jettySize=auto;html=1;exitX=0;exitY=0.5;exitDx=0;exitDy=0;entryX=1;entryY=0.25;entryDx=0;entryDy=0;" edge="1" parent="1" source="qgr2JBzwgw_MhLTYwdBK-3" target="zG7GpUUIhApCFcoai5n3-13">
          <mxGeometry relative="1" as="geometry" />
        </mxCell>
        <mxCell id="qgr2JBzwgw_MhLTYwdBK-3" value="Capteur 1" style="whiteSpace=wrap;html=1;aspect=fixed;" parent="1" vertex="1">
          <mxGeometry x="622.35" y="280" width="80" height="80" as="geometry" />
        </mxCell>
        <mxCell id="zG7GpUUIhApCFcoai5n3-34" style="edgeStyle=orthogonalEdgeStyle;rounded=0;orthogonalLoop=1;jettySize=auto;html=1;exitX=0;exitY=0.5;exitDx=0;exitDy=0;entryX=1;entryY=0.25;entryDx=0;entryDy=0;" edge="1" parent="1" source="qgr2JBzwgw_MhLTYwdBK-4" target="zG7GpUUIhApCFcoai5n3-13">
          <mxGeometry relative="1" as="geometry" />
        </mxCell>
        <mxCell id="qgr2JBzwgw_MhLTYwdBK-4" value="Capteur 2" style="whiteSpace=wrap;html=1;aspect=fixed;" parent="1" vertex="1">
          <mxGeometry x="622.35" y="370" width="80" height="80" as="geometry" />
        </mxCell>
        <mxCell id="zG7GpUUIhApCFcoai5n3-28" style="edgeStyle=orthogonalEdgeStyle;rounded=0;orthogonalLoop=1;jettySize=auto;html=1;exitX=0;exitY=0.5;exitDx=0;exitDy=0;entryX=1;entryY=0.75;entryDx=0;entryDy=0;" edge="1" parent="1" source="qgr2JBzwgw_MhLTYwdBK-5" target="zG7GpUUIhApCFcoai5n3-13">
          <mxGeometry relative="1" as="geometry" />
        </mxCell>
        <mxCell id="qgr2JBzwgw_MhLTYwdBK-5" value="Capteur 4" style="whiteSpace=wrap;html=1;aspect=fixed;" parent="1" vertex="1">
          <mxGeometry x="622.35" y="550" width="80" height="80" as="geometry" />
        </mxCell>
        <mxCell id="zG7GpUUIhApCFcoai5n3-29" style="edgeStyle=orthogonalEdgeStyle;rounded=0;orthogonalLoop=1;jettySize=auto;html=1;exitX=0;exitY=0.5;exitDx=0;exitDy=0;entryX=1;entryY=0.75;entryDx=0;entryDy=0;" edge="1" parent="1" source="qgr2JBzwgw_MhLTYwdBK-6" target="zG7GpUUIhApCFcoai5n3-13">
          <mxGeometry relative="1" as="geometry" />
        </mxCell>
        <mxCell id="qgr2JBzwgw_MhLTYwdBK-6" value="Capteur 3" style="whiteSpace=wrap;html=1;aspect=fixed;" parent="1" vertex="1">
          <mxGeometry x="622.35" y="460" width="80" height="80" as="geometry" />
        </mxCell>
        <mxCell id="zG7GpUUIhApCFcoai5n3-31" style="edgeStyle=orthogonalEdgeStyle;rounded=0;orthogonalLoop=1;jettySize=auto;html=1;exitX=0;exitY=0.5;exitDx=0;exitDy=0;entryX=1;entryY=0.75;entryDx=0;entryDy=0;" edge="1" parent="1" source="qgr2JBzwgw_MhLTYwdBK-7" target="qgr2JBzwgw_MhLTYwdBK-8">
          <mxGeometry relative="1" as="geometry" />
        </mxCell>
        <mxCell id="qgr2JBzwgw_MhLTYwdBK-7" value="&lt;b&gt;6&lt;/b&gt;&lt;br&gt;Mesure niveau du reservoir" style="whiteSpace=wrap;html=1;aspect=fixed;" parent="1" vertex="1">
          <mxGeometry x="622.35" y="690" width="80" height="80" as="geometry" />
        </mxCell>
        <mxCell id="zG7GpUUIhApCFcoai5n3-37" style="edgeStyle=orthogonalEdgeStyle;rounded=0;orthogonalLoop=1;jettySize=auto;html=1;exitX=0.5;exitY=1;exitDx=0;exitDy=0;entryX=0.5;entryY=0;entryDx=0;entryDy=0;" edge="1" parent="1" source="qgr2JBzwgw_MhLTYwdBK-8" target="qgr2JBzwgw_MhLTYwdBK-10">
          <mxGeometry relative="1" as="geometry" />
        </mxCell>
        <mxCell id="zG7GpUUIhApCFcoai5n3-39" style="edgeStyle=orthogonalEdgeStyle;rounded=0;orthogonalLoop=1;jettySize=auto;html=1;exitX=0;exitY=0.5;exitDx=0;exitDy=0;entryX=1;entryY=0.5;entryDx=0;entryDy=0;" edge="1" parent="1" source="qgr2JBzwgw_MhLTYwdBK-8" target="qgr2JBzwgw_MhLTYwdBK-13">
          <mxGeometry relative="1" as="geometry" />
        </mxCell>
        <mxCell id="qgr2JBzwgw_MhLTYwdBK-8" value="uC PIC32" style="whiteSpace=wrap;html=1;aspect=fixed;" parent="1" vertex="1">
          <mxGeometry x="290" y="370" width="122.5" height="122.5" as="geometry" />
        </mxCell>
        <mxCell id="qgr2JBzwgw_MhLTYwdBK-10" value="Affichage LCD 4x20" style="rounded=0;whiteSpace=wrap;html=1;" parent="1" vertex="1">
          <mxGeometry x="291.25" y="530" width="120" height="40" as="geometry" />
        </mxCell>
        <mxCell id="zG7GpUUIhApCFcoai5n3-38" style="edgeStyle=orthogonalEdgeStyle;rounded=0;orthogonalLoop=1;jettySize=auto;html=1;exitX=0;exitY=0.5;exitDx=0;exitDy=0;entryX=0.25;entryY=1;entryDx=0;entryDy=0;" edge="1" parent="1" source="qgr2JBzwgw_MhLTYwdBK-11" target="qgr2JBzwgw_MhLTYwdBK-8">
          <mxGeometry relative="1" as="geometry">
            <Array as="points">
              <mxPoint x="271" y="590" />
              <mxPoint x="271" y="510" />
              <mxPoint x="321" y="510" />
            </Array>
          </mxGeometry>
        </mxCell>
        <mxCell id="qgr2JBzwgw_MhLTYwdBK-11" value="Bouton poussoir montÃ©s sur boitier" style="rounded=0;whiteSpace=wrap;html=1;" parent="1" vertex="1">
          <mxGeometry x="291.25" y="567.5" width="120" height="45" as="geometry" />
        </mxCell>
        <mxCell id="qgr2JBzwgw_MhLTYwdBK-13" value="&lt;b&gt;8&lt;/b&gt;&lt;br&gt;Buzzer" style="rounded=0;whiteSpace=wrap;html=1;" parent="1" vertex="1">
          <mxGeometry x="180" y="411.25" width="60" height="40" as="geometry" />
        </mxCell>
        <mxCell id="zG7GpUUIhApCFcoai5n3-4" value="" style="edgeStyle=orthogonalEdgeStyle;rounded=0;orthogonalLoop=1;jettySize=auto;html=1;" edge="1" parent="1" source="qgr2JBzwgw_MhLTYwdBK-15" target="zG7GpUUIhApCFcoai5n3-1">
          <mxGeometry relative="1" as="geometry" />
        </mxCell>
        <mxCell id="zG7GpUUIhApCFcoai5n3-5" value="" style="edgeStyle=orthogonalEdgeStyle;rounded=0;orthogonalLoop=1;jettySize=auto;html=1;" edge="1" parent="1" source="qgr2JBzwgw_MhLTYwdBK-15" target="qgr2JBzwgw_MhLTYwdBK-8">
          <mxGeometry relative="1" as="geometry" />
        </mxCell>
        <mxCell id="qgr2JBzwgw_MhLTYwdBK-15" value="&lt;b&gt;2&lt;/b&gt;&lt;br&gt;Alimentation 3,3V" style="rounded=0;whiteSpace=wrap;html=1;" parent="1" vertex="1">
          <mxGeometry x="311.25" y="280" width="80" height="40" as="geometry" />
        </mxCell>
        <mxCell id="qgr2JBzwgw_MhLTYwdBK-67" value="&lt;b&gt;7&lt;/b&gt;&lt;br&gt;Module bluetooth" style="rounded=0;whiteSpace=wrap;html=1;" parent="1" vertex="1">
          <mxGeometry x="180" y="350" width="60" height="47.5" as="geometry" />
        </mxCell>
        <mxCell id="qgr2JBzwgw_MhLTYwdBK-71" value="&lt;b&gt;4&lt;/b&gt;&lt;br&gt;Leds alimentation et&amp;nbsp; signalisation" style="rounded=0;whiteSpace=wrap;html=1;" parent="1" vertex="1">
          <mxGeometry x="417.5" y="310" width="105" height="50" as="geometry" />
        </mxCell>
        <mxCell id="qgr2JBzwgw_MhLTYwdBK-137" value="&lt;b&gt;5&lt;/b&gt;&lt;br&gt;Capteurs + pompes" style="text;html=1;strokeColor=none;fillColor=none;align=center;verticalAlign=middle;whiteSpace=wrap;rounded=0;" parent="1" vertex="1">
          <mxGeometry x="622.35" y="240" width="80" height="30" as="geometry" />
        </mxCell>
        <mxCell id="jTeVRLrrodxTnjLva2XY-2" value="" style="endArrow=none;html=1;rounded=0;exitX=1;exitY=0.5;exitDx=0;exitDy=0;" parent="1" source="qgr2JBzwgw_MhLTYwdBK-1" edge="1">
          <mxGeometry width="50" height="50" relative="1" as="geometry">
            <mxPoint x="400" y="190" as="sourcePoint" />
            <mxPoint x="350" y="200" as="targetPoint" />
          </mxGeometry>
        </mxCell>
        <mxCell id="zG7GpUUIhApCFcoai5n3-2" value="" style="edgeStyle=orthogonalEdgeStyle;rounded=0;orthogonalLoop=1;jettySize=auto;html=1;" edge="1" parent="1" source="zG7GpUUIhApCFcoai5n3-1" target="qgr2JBzwgw_MhLTYwdBK-71">
          <mxGeometry relative="1" as="geometry" />
        </mxCell>
        <mxCell id="zG7GpUUIhApCFcoai5n3-1" value="&lt;b&gt;3&lt;/b&gt;&lt;br&gt;Alimentation pour leds" style="rounded=0;whiteSpace=wrap;html=1;" vertex="1" parent="1">
          <mxGeometry x="430" y="250" width="80" height="40" as="geometry" />
        </mxCell>
        <mxCell id="zG7GpUUIhApCFcoai5n3-13" value="" style="rounded=0;whiteSpace=wrap;html=1;" vertex="1" parent="1">
          <mxGeometry x="540" y="390" width="20" height="81.25" as="geometry" />
        </mxCell>
        <mxCell id="zG7GpUUIhApCFcoai5n3-32" value="" style="endArrow=classic;startArrow=classic;html=1;rounded=0;exitX=1;exitY=0.5;exitDx=0;exitDy=0;entryX=0;entryY=0.5;entryDx=0;entryDy=0;" edge="1" parent="1" source="qgr2JBzwgw_MhLTYwdBK-8" target="zG7GpUUIhApCFcoai5n3-13">
          <mxGeometry width="50" height="50" relative="1" as="geometry">
            <mxPoint x="450" y="430" as="sourcePoint" />
            <mxPoint x="500" y="380" as="targetPoint" />
          </mxGeometry>
        </mxCell>
        <mxCell id="zG7GpUUIhApCFcoai5n3-40" value="" style="endArrow=classic;startArrow=classic;html=1;rounded=0;exitX=1;exitY=0.5;exitDx=0;exitDy=0;entryX=0;entryY=0.25;entryDx=0;entryDy=0;" edge="1" parent="1" source="qgr2JBzwgw_MhLTYwdBK-67" target="qgr2JBzwgw_MhLTYwdBK-8">
          <mxGeometry width="50" height="50" relative="1" as="geometry">
            <mxPoint x="390" y="480" as="sourcePoint" />
            <mxPoint x="440" y="430" as="targetPoint" />
            <Array as="points">
              <mxPoint x="260" y="374" />
              <mxPoint x="260" y="400" />
            </Array>
          </mxGeometry>
        </mxCell>
        <mxCell id="zG7GpUUIhApCFcoai5n3-42" value="" style="endArrow=classic;html=1;rounded=0;entryX=0.5;entryY=0;entryDx=0;entryDy=0;" edge="1" parent="1" target="qgr2JBzwgw_MhLTYwdBK-15">
          <mxGeometry width="50" height="50" relative="1" as="geometry">
            <mxPoint x="351" y="200" as="sourcePoint" />
            <mxPoint x="450" y="200" as="targetPoint" />
          </mxGeometry>
        </mxCell>
        <mxCell id="zG7GpUUIhApCFcoai5n3-44" value="&lt;b&gt;&lt;font style=&quot;font-size: 16px;&quot;&gt;9&lt;br&gt;PCB&lt;br&gt;&lt;/font&gt;&lt;/b&gt;" style="text;html=1;strokeColor=none;fillColor=none;align=center;verticalAlign=middle;whiteSpace=wrap;rounded=0;" vertex="1" parent="1">
          <mxGeometry x="180" y="260" width="60" height="30" as="geometry" />
        </mxCell>
        <mxCell id="zG7GpUUIhApCFcoai5n3-45" value="" style="html=1;strokeWidth=1;shadow=0;dashed=0;shape=mxgraph.ios7.misc.bluetooth;fillColor=#007AFF;strokeColor=none;buttonText=;strokeColor2=#222222;fontColor=#222222;fontSize=8;verticalLabelPosition=bottom;verticalAlign=top;align=center;sketch=0;" vertex="1" parent="1">
          <mxGeometry x="50" y="351.25" width="40" height="45" as="geometry" />
        </mxCell>
        <mxCell id="zG7GpUUIhApCFcoai5n3-47" value="" style="shape=flexArrow;endArrow=classic;html=1;rounded=0;endWidth=31.428571428571427;endSize=9.761904761904761;width=24;" edge="1" parent="1">
          <mxGeometry width="50" height="50" relative="1" as="geometry">
            <mxPoint x="150" y="373.51" as="sourcePoint" />
            <mxPoint x="100" y="373.51" as="targetPoint" />
          </mxGeometry>
        </mxCell>
      </root>
    </mxGraphModel>
  </diagram>
  <diagram id="AHTGGjx2VwsI_EfohaDG" name="Page-2">
    <mxGraphModel dx="1418" dy="820" grid="1" gridSize="10" guides="1" tooltips="1" connect="1" arrows="1" fold="1" page="1" pageScale="1" pageWidth="827" pageHeight="1169" math="0" shadow="0">
      <root>
        <mxCell id="0" />
        <mxCell id="1" parent="0" />
      </root>
    </mxGraphModel>
  </diagram>
</mxfile>
